<svg width="36" height="35" viewBox="0 0 36 35" fill="none" xmlns="http://www.w3.org/2000/svg">
<path d="M12.9532 0.896382C13.08 0.973325 13.1906 1.07483 13.2787 1.19509C13.3667 1.31536 13.4306 1.45203 13.4665 1.5973C13.5024 1.74257 13.5098 1.8936 13.4881 2.04175C13.4665 2.1899 13.4162 2.33227 13.3403 2.46073L7.61175 12.1365H28.3882L22.6575 2.46073C22.5041 2.20127 22.4588 1.8907 22.5313 1.59732C22.6039 1.30395 22.7885 1.05181 23.0445 0.896382C23.3005 0.740948 23.6069 0.694951 23.8964 0.768508C24.1859 0.842065 24.4346 1.02915 24.588 1.28861L31.0117 12.1365H33.75C34.3467 12.1365 34.919 12.3767 35.341 12.8044C35.7629 13.232 36 13.8121 36 14.4168V16.6972C36 17.302 35.7629 17.8821 35.341 18.3097C34.919 18.7374 34.3467 18.9776 33.75 18.9776V29.2394C33.75 30.7514 33.1574 32.2015 32.1025 33.2706C31.0476 34.3398 29.6168 34.9404 28.125 34.9404H7.875C6.38316 34.9404 4.95242 34.3398 3.89752 33.2706C2.84263 32.2015 2.25 30.7514 2.25 29.2394V18.9776C1.65326 18.9776 1.08097 18.7374 0.65901 18.3097C0.237053 17.8821 0 17.302 0 16.6972V14.4168C0 13.8121 0.237053 13.232 0.65901 12.8044C1.08097 12.3767 1.65326 12.1365 2.25 12.1365H4.98825L11.4075 1.28861C11.4834 1.16012 11.5836 1.04804 11.7022 0.95879C11.8209 0.869536 11.9557 0.804849 12.0991 0.768425C12.2424 0.732002 12.3914 0.724555 12.5376 0.74651C12.6838 0.768465 12.8242 0.819392 12.951 0.896382H12.9532ZM4.5 18.9776V29.2394C4.5 30.1466 4.85558 31.0167 5.48851 31.6581C6.12145 32.2996 6.97989 32.66 7.875 32.66H28.125C29.0201 32.66 29.8786 32.2996 30.5115 31.6581C31.1444 31.0167 31.5 30.1466 31.5 29.2394V18.9776H4.5ZM2.25 14.4168V16.6972H33.75V14.4168H2.25ZM9 21.258C9.29837 21.258 9.58452 21.3782 9.7955 21.592C10.0065 21.8058 10.125 22.0958 10.125 22.3982V29.2394C10.125 29.5418 10.0065 29.8318 9.7955 30.0457C9.58452 30.2595 9.29837 30.3796 9 30.3796C8.70163 30.3796 8.41548 30.2595 8.2045 30.0457C7.99353 29.8318 7.875 29.5418 7.875 29.2394V22.3982C7.875 22.0958 7.99353 21.8058 8.2045 21.592C8.41548 21.3782 8.70163 21.258 9 21.258ZM13.5 21.258C13.7984 21.258 14.0845 21.3782 14.2955 21.592C14.5065 21.8058 14.625 22.0958 14.625 22.3982V29.2394C14.625 29.5418 14.5065 29.8318 14.2955 30.0457C14.0845 30.2595 13.7984 30.3796 13.5 30.3796C13.2016 30.3796 12.9155 30.2595 12.7045 30.0457C12.4935 29.8318 12.375 29.5418 12.375 29.2394V22.3982C12.375 22.0958 12.4935 21.8058 12.7045 21.592C12.9155 21.3782 13.2016 21.258 13.5 21.258ZM18 21.258C18.2984 21.258 18.5845 21.3782 18.7955 21.592C19.0065 21.8058 19.125 22.0958 19.125 22.3982V29.2394C19.125 29.5418 19.0065 29.8318 18.7955 30.0457C18.5845 30.2595 18.2984 30.3796 18 30.3796C17.7016 30.3796 17.4155 30.2595 17.2045 30.0457C16.9935 29.8318 16.875 29.5418 16.875 29.2394V22.3982C16.875 22.0958 16.9935 21.8058 17.2045 21.592C17.4155 21.3782 17.7016 21.258 18 21.258ZM22.5 21.258C22.7984 21.258 23.0845 21.3782 23.2955 21.592C23.5065 21.8058 23.625 22.0958 23.625 22.3982V29.2394C23.625 29.5418 23.5065 29.8318 23.2955 30.0457C23.0845 30.2595 22.7984 30.3796 22.5 30.3796C22.2016 30.3796 21.9155 30.2595 21.7045 30.0457C21.4935 29.8318 21.375 29.5418 21.375 29.2394V22.3982C21.375 22.0958 21.4935 21.8058 21.7045 21.592C21.9155 21.3782 22.2016 21.258 22.5 21.258ZM27 21.258C27.2984 21.258 27.5845 21.3782 27.7955 21.592C28.0065 21.8058 28.125 22.0958 28.125 22.3982V29.2394C28.125 29.5418 28.0065 29.8318 27.7955 30.0457C27.5845 30.2595 27.2984 30.3796 27 30.3796C26.7016 30.3796 26.4155 30.2595 26.2045 30.0457C25.9935 29.8318 25.875 29.5418 25.875 29.2394V22.3982C25.875 22.0958 25.9935 21.8058 26.2045 21.592C26.4155 21.3782 26.7016 21.258 27 21.258Z" fill="#165A6F"/>
</svg>
