<svg width="59" height="59" viewBox="0 0 59 59" fill="none" xmlns="http://www.w3.org/2000/svg">
<path d="M45.1719 3.68753H43.3281V5.53128H45.1719V3.68753Z" fill="url(#paint0_linear)"/>
<path d="M15.6719 19.3594H13.8281V21.2032H15.6719V19.3594Z" fill="url(#paint1_linear)"/>
<path d="M10.1406 3.68753H8.29688V5.53128H10.1406V3.68753Z" fill="#EE6B4D"/>
<path d="M59 21.86H57.1562V23.7037H59V21.86Z" fill="#EE6B4D"/>
<path d="M32.2656 53.4688H30.4219V55.3125H32.2656V53.4688Z" fill="#EE6B4D"/>
<path d="M38.2578 47.0157C40.0324 47.0157 41.4844 48.4676 41.4844 50.2422C41.4844 52.0168 40.0324 53.4688 38.2578 53.4688C36.4832 53.4688 35.0312 52.0168 35.0312 50.2422C35.0312 48.4676 36.4832 47.0157 38.2578 47.0157ZM38.2578 51.625C39.0184 51.625 39.6406 51.0028 39.6406 50.2422C39.6406 49.4817 39.0184 48.8594 38.2578 48.8594C37.4973 48.8594 36.875 49.4817 36.875 50.2422C36.875 51.0028 37.4973 51.625 38.2578 51.625Z" fill="#EE6B4D"/>
<path d="M53.0078 8.29691C51.2332 8.29691 49.7812 6.84495 49.7812 5.07034C49.7812 3.29573 51.2332 1.84378 53.0078 1.84378C54.7824 1.84378 56.2344 3.29573 56.2344 5.07034C56.2344 6.84495 54.7824 8.29691 53.0078 8.29691ZM53.0078 3.68753C52.2473 3.68753 51.625 4.3098 51.625 5.07034C51.625 5.83089 52.2473 6.45316 53.0078 6.45316C53.7684 6.45316 54.3906 5.83089 54.3906 5.07034C54.3906 4.3098 53.7684 3.68753 53.0078 3.68753Z" fill="#EE6B4D"/>
<path d="M33.6254 6.33792L30.8828 7.83597L29.3848 10.5785C29.2234 10.8782 28.9123 11.0625 28.5781 11.0625C28.2439 11.0625 27.9328 10.8782 27.7715 10.5785L26.2734 7.83597L23.5309 6.33792C23.2313 6.17659 23.0469 5.86546 23.0469 5.53128C23.0469 5.1971 23.2313 4.88597 23.5309 4.72464L26.2734 3.22659L27.7715 0.484015C27.9328 0.184406 28.2439 3.05176e-05 28.5781 3.05176e-05C28.9123 3.05176e-05 29.2234 0.184406 29.3848 0.484015L30.8828 3.22659L33.6254 4.72464C33.925 4.88597 34.1094 5.1971 34.1094 5.53128C34.1094 5.86546 33.925 6.17659 33.6254 6.33792ZM29.765 4.71312C29.6152 4.63245 29.4885 4.50569 29.3963 4.34437L28.5781 2.84632L27.76 4.34437C27.6793 4.49417 27.5525 4.62093 27.3912 4.71312L25.8932 5.53128L27.3912 6.34944C27.541 6.43011 27.6678 6.55687 27.76 6.71819L28.5781 8.21624L29.3963 6.71819C29.477 6.56839 29.6037 6.44163 29.765 6.34944L31.2631 5.53128L29.765 4.71312Z" fill="#EE6B4D"/>
<path d="M14.3121 52.6621L17.0547 51.1641L18.5527 48.4215C18.7141 48.1219 19.0252 47.9375 19.3594 47.9375C19.6936 47.9375 20.0047 48.1219 20.166 48.4215L21.6641 51.1641L24.4066 52.6621C24.7062 52.8235 24.8906 53.1346 24.8906 53.4688C24.8906 53.803 24.7062 54.1141 24.4066 54.2754L21.6641 55.7735L20.166 58.516C20.0047 58.8157 19.6936 59 19.3594 59C19.0252 59 18.7141 58.8157 18.5527 58.516L17.0547 55.7735L14.3121 54.2754C14.0125 54.1141 13.8281 53.803 13.8281 53.4688C13.8281 53.1346 14.0125 52.8235 14.3121 52.6621ZM18.1725 54.2869C18.3223 54.3676 18.449 54.4944 18.5412 54.6557L19.3594 56.1537L20.1775 54.6557C20.2582 54.5059 20.385 54.3791 20.5463 54.2869L22.0443 53.4688L20.5463 52.6506C20.3965 52.57 20.2697 52.4432 20.1775 52.2819L19.3594 50.7838L18.5412 52.2819C18.4605 52.4317 18.3338 52.5584 18.1725 52.6506L16.6744 53.4688L18.1725 54.2869Z" fill="#EE6B4D"/>
<path d="M0.10371 33.6946L6.45312 20.9842V11.0625C6.45312 10.7629 6.5914 10.4864 6.8334 10.3135C7.07539 10.1407 7.38652 10.0946 7.66309 10.1867L9.21875 10.7053V9.21878C9.21875 8.75784 9.55293 8.37757 10.0023 8.30843C12.549 7.92816 15.1303 7.92816 17.6539 8.30843C21.5488 8.89612 25.3285 10.4287 28.6357 12.7334C31.4475 11.1662 34.4551 9.99085 37.5895 9.24183C41.4729 8.30843 46.6814 8.21624 48.8939 8.29691C49.3895 8.31995 49.7812 8.72327 49.7812 9.21878V10.7053L51.3369 10.1867C51.6135 10.0946 51.9246 10.1407 52.1666 10.3135C52.4086 10.4864 52.5469 10.7629 52.5469 11.0625V20.9842L58.9539 33.6946C59.023 33.8213 59.0576 33.9596 59.0576 34.1094V59H57.2139V34.5473L46.2896 25.536C46.0361 26.7344 45.9785 28.7164 47.442 30.7215L52.3164 35.2848C52.5008 35.4576 52.6045 35.6996 52.6045 35.9532V38.7188C52.6045 39.2258 52.1896 39.6407 51.6826 39.6407C51.6711 39.6407 50.4727 39.6752 49.5854 40.7584C48.4906 42.0951 48.2486 44.5151 48.8939 47.7532L47.0848 48.1104C46.7967 46.6469 46.6584 45.3217 46.693 44.1463C46.1514 44.1118 45.6213 44.1002 45.0912 44.1002C45.0566 46.1168 45.3678 51.3139 49.1936 52.593C49.5738 52.7198 49.8273 53.0655 49.8273 53.4688V59H47.9836V54.1026C45.7365 53.1 44.227 50.9451 43.5816 47.8338C43.282 46.4049 43.2359 45.0797 43.2475 44.1924C38.4422 44.5842 34.5357 46.3127 32.3809 47.4881C32.3002 47.5342 32.2541 47.6034 32.2541 47.6955V48.8594C32.2541 49.3664 31.8393 49.7813 31.3322 49.7813H25.801C25.2939 49.7813 24.8791 49.3664 24.8791 48.8594V47.5573C24.8791 47.4881 24.8445 47.419 24.7984 47.3729C21.7447 44.9414 18.3568 44.1578 15.7756 43.9735C15.8217 46.3588 15.4529 52.1436 11.0625 54.1026V59H9.21875V53.4688C9.21875 53.077 9.47227 52.7198 9.85254 52.593C13.6898 51.3139 13.9779 45.9785 13.9318 43.9274C13.2865 43.9504 12.7564 43.9965 12.3531 44.0426C12.3992 45.241 12.2725 46.6008 11.9729 48.1104L10.1637 47.7532C10.809 44.5381 10.5785 42.1297 9.49531 40.7815C8.60801 39.6752 7.42109 39.6407 7.375 39.6291C6.86797 39.6291 6.45312 39.2143 6.45312 38.7073V35.9416C6.45312 35.6881 6.55684 35.4461 6.74121 35.2733L11.6041 30.7215C13.0791 28.7164 13.01 26.7344 12.7564 25.536L1.83223 34.5473V59H-0.0115204V34.1094C3.8147e-06 33.9596 0.0345688 33.8213 0.10371 33.6946ZM3.6875 30.6293L6.45312 28.3477V25.0981L3.6875 30.6293ZM8.29688 12.3416V26.8381L9.21875 26.0776V12.6528L8.29688 12.3416ZM49.7812 12.6528V26.0315L50.7031 26.792V12.3416L49.7812 12.6528ZM52.5469 28.3131L55.3355 30.6178L52.5469 25.0866V28.3131ZM46.1283 32.0121C46.0938 31.9776 46.0477 31.9315 46.0246 31.8969C42.9479 27.8061 44.9299 23.7268 45.0105 23.5539C45.1373 23.3004 45.3678 23.1276 45.6443 23.07C45.9209 23.0123 46.209 23.0815 46.4164 23.2659L47.9375 24.5104V10.1176C45.5061 10.0946 41.2539 10.2559 38.0158 11.0395C35.0428 11.7539 32.1734 12.8717 29.5 14.3698V42.6944C32.0582 41.3576 34.7662 40.3436 37.5779 39.6752C40.9773 38.8571 45.4023 38.6842 47.9375 38.7073V33.7176L46.1283 32.0121ZM50.7607 36.3565L49.7812 35.4461V38.3039C50.1385 38.1311 50.4727 38.0159 50.7607 37.9352V36.3565ZM25.9508 45.9325C26.4463 46.3242 26.7344 46.9235 26.7344 47.5573V47.9375H30.4219V47.684C30.4219 46.9235 30.8367 46.2205 31.5051 45.8633C34.3514 44.3192 40.0324 41.8762 46.9119 42.3256C47.0502 41.6688 47.2576 41.0811 47.5342 40.551C45.0566 40.551 41.0811 40.7354 38.0158 41.4729C34.8699 42.2219 31.8508 43.4319 29.0391 45.0567C28.9008 45.1373 28.7395 45.1834 28.5781 45.1834C28.4168 45.1834 28.2555 45.1373 28.1172 45.0567C28.0826 45.0451 28.0596 45.0221 28.0365 44.9991C24.8561 42.6713 21.1801 41.1387 17.3773 40.5625C15.4184 40.2629 13.4363 40.2168 11.4543 40.4127C11.7539 40.9428 11.9729 41.5535 12.1227 42.2219C14.4504 41.9108 20.5809 41.6457 25.9508 45.9325ZM8.29688 37.9352C8.57344 38.0043 8.88457 38.108 9.21875 38.2694V35.4922L8.29688 36.3565V37.9352ZM13.4133 23.07C13.6898 23.1276 13.9203 23.3119 14.0471 23.5539C14.1277 23.7268 16.1098 27.7946 13.033 31.8969C12.9984 31.943 12.9639 31.9776 12.9293 32.0121L11.0625 33.7637V38.592C13.2635 38.35 15.476 38.3961 17.6539 38.7303C21.1686 39.2604 24.591 40.5625 27.6562 42.51V14.3006C24.568 12.1227 21.0187 10.6823 17.3773 10.1291C15.2916 9.818 13.1713 9.78343 11.0625 10.0254V24.5565L12.6412 23.2543C12.8602 23.0815 13.1482 23.0123 13.4133 23.07Z" fill="#EE6B4D"/>
<path d="M32.7266 20.1545L31.8162 18.5528C38.4653 14.75 45.0336 15.6373 45.3102 15.6719L45.0451 17.4926C44.976 17.4926 38.834 16.6744 32.7266 20.1545Z" fill="#EE6B4D"/>
<path d="M32.7266 24.7639L31.8162 23.1621C38.4653 19.3594 45.0336 20.2467 45.3102 20.2813L45.0451 22.102C44.976 22.102 38.834 21.2838 32.7266 24.7639Z" fill="#EE6B4D"/>
<path d="M26.2734 37.0018L25.3631 38.6035C19.2787 35.1235 13.1021 35.9416 13.0445 35.9532L12.7795 34.1324C13.0561 34.0748 19.6244 33.199 26.2734 37.0018Z" fill="#EE6B4D"/>
<path d="M26.2734 17.7346L25.3631 19.3364C19.2787 15.8563 13.1021 16.6744 13.0445 16.686L12.7795 14.8653C13.0561 14.8192 19.6244 13.9434 26.2734 17.7346Z" fill="url(#paint2_linear)"/>
<defs>
<linearGradient id="paint0_linear" x1="19.9932" y1="-19.6474" x2="78.7058" y2="39.0652" gradientUnits="userSpaceOnUse">
<stop stop-color="#F7941E"/>
<stop offset="1" stop-color="#EE2A7B"/>
</linearGradient>
<linearGradient id="paint1_linear" x1="-2.59277" y1="2.93851" x2="56.1198" y2="61.6511" gradientUnits="userSpaceOnUse">
<stop stop-color="#F7941E"/>
<stop offset="1" stop-color="#EE2A7B"/>
</linearGradient>
<linearGradient id="paint2_linear" x1="1.39249" y1="-1.04674" x2="60.1051" y2="57.6659" gradientUnits="userSpaceOnUse">
<stop stop-color="#F7941E"/>
<stop offset="1" stop-color="#EE2A7B"/>
</linearGradient>
</defs>
</svg>
